# xmcd CD database file
#
# Track frame offsets:
#	150
#	8667
#	20269
#	30433
#	40743
#	52710
#	65394
#	73254
#	84321
#	93918
#	106527
#	116409
#	125814
#	135601
#	157766
#
# Disc length: 2167 seconds
#
# Revision: 0
# Processed by: cddbd v1.5.1PL0 Copyright (c) Steve Scherf et al.
# Submitted via: CDex 1.51
#
DISCID=a808750f
DTITLE=Jerry Lee Lewis - Country Greatest Hits
DYEAR=1990
DGENRE=Country
TTITLE0=SAVE THE LAST DANCE FOR ME
TTITLE1=LOVE ON BROADWAY
TTITLE2=YOUR CHEATIN´ HEART
TTITLE3=IT´LL BE ME
TTITLE4=I´M  SORRY  I´M  NOT SORRY
TTITLE5=WILD SIDE OF LIFE
TTITLE6=WAITIN´ FOR A TRAIN
TTITLE7=C.C. RIDER
TTITLE8=SILVER THREADS (AMONG THE GOLD)
TTITLE9=SOMEDAY (YOU´LL  WANT ME TO WANT YOU)
TTITLE10=NIGHT TRAIN TO MEMPHIS
TTITLE11=LOVE LETTERS IN THE SAND
TTITLE12=SINGING THE BLUES
TTITLE13=WILL THE CIRCLE BE UNBROKEN
TTITLE14=Pista de Datos
EXTD=YEAR: 1990
EXTT0=
EXTT1=
EXTT2=
EXTT3=
EXTT4=
EXTT5=
EXTT6=
EXTT7=
EXTT8=
EXTT9=
EXTT10=
EXTT11=
EXTT12=
EXTT13=
EXTT14=
PLAYORDER=
